<svg width="1080" height="1430" viewBox="0 0 1080 1430" fill="none" xmlns="http://www.w3.org/2000/svg">
<rect width="1080" height="1430" fill="#51DED6"/>
<circle cx="965.5" cy="893.5" r="184.5" fill="white" fill-opacity="0.5"/>
<circle cx="74.5" cy="994.5" r="184.5" fill="white" fill-opacity="0.5"/>
<g clip-path="url(#clip0_8:390)">
<path d="M3193.89 1161.05L3108.43 1174.84L3005.82 1147.27L2925.19 1140.38L2829.95 1147.27L2671.13 1092.13L2356.03 1149.57L2268.07 1131.19L2246.1 1122L2209.45 1110.51L2177.7 1115.11C2177.7 1115.11 2072.64 1101.32 2062.9 1094.43C2053.13 1087.54 2016.47 1099.02 2016.47 1099.02L2009.15 1100.17C1961.02 1089.15 1910.7 1080.65 1860.15 1076.05L1835.69 1073.75C1671.06 1057.44 1588.23 1031.48 1588.23 1031.48L1522.29 1003.45C1522.29 1003.45 1496.4 1009.66 1477.83 1005.52C1417.74 991.968 1381.1 983.698 1381.1 983.698L1259.44 974.968L1221.09 983.927L1007.35 947.17L962.151 930.629L928.686 908.574L853.205 914.548L825.356 927.872C825.356 927.872 759.886 942.116 759.154 942.116C671.703 942.116 584.006 936.832 495.818 936.832C444.032 936.832 352.424 942.805 284.025 941.197C233.704 940.048 195.841 930.859 195.841 930.859L-99.7375 967.616L-254.86 960.954C-254.86 960.954 -302.984 982.319 -323.255 983.927C-378.465 988.522 -412.421 991.279 -412.421 991.279L-512.821 1011.73H-557.279C-800.094 1051.47 -650.593 989.441 -836.006 1041.59H-839.422L-920.038 1064.56L-1418.37 1073.75L-1489.21 1087.54L-1606.47 1089.84C-1606.47 1089.84 -1626.01 1094.43 -1667.54 1117.4C-1709.07 1140.38 -1711.51 1103.62 -1740.82 1108.21C-1770.14 1112.81 -1862.96 1122 -1862.96 1122L-2209 1133.75V1430H3227V1175L3193.89 1161.05Z" fill="#FE7465"/>
<path opacity="0.25" d="M1669.59 1050.77C1620.74 1041.58 1588.5 1031.48 1588.5 1031.48L1552.58 1016.31L846.61 1019.76L1669.59 1050.77Z" fill="#FE4731"/>
<path opacity="0.25" d="M2135.69 1136.93C2063.13 1114.87 1986.2 1093.05 1913.38 1075.13L1485.9 1101.55L816.81 1136.93H2135.69Z" fill="#FE4731"/>
<path d="M1023.22 981.628L1017.11 980.249L1011.98 975.195L1015.89 981.168L1023.22 981.628Z" fill="#C64F59"/>
<path d="M841.234 1086.62C840.992 1087.08 840.501 1087.54 840.014 1088C829.999 1096.5 775.768 1108.9 754.028 1111.89C732.775 1114.65 681.231 1101.78 669.019 1090.53C666.818 1088.46 665.84 1086.39 666.573 1084.78C671.948 1072.61 738.15 1068.01 749.875 1069.16C761.6 1070.31 835.862 1076.97 840.992 1084.78C841.725 1085.24 841.479 1085.93 841.234 1086.62Z" fill="#FD6F5C"/>
<path d="M841.238 1086.62L840.014 1088C840.014 1088 779.433 1073.3 744.258 1076.97C709.815 1080.42 670.728 1090.07 669.264 1090.53C667.067 1088.46 666.089 1086.39 666.821 1084.78C672.197 1072.61 738.395 1068.01 750.12 1069.16C761.845 1070.31 836.107 1076.97 841.238 1084.78C841.725 1085.24 841.483 1085.93 841.238 1086.62Z" fill="#FF503E"/>
<path d="M549.317 1024.13L549.076 1024.36C548.339 1024.82 546.875 1025.28 545.41 1025.73C534.172 1028.72 505.104 1031.02 499.483 1031.48C482.873 1032.86 453.802 1029.18 444.277 1026.42C441.099 1025.51 440.125 1024.59 442.077 1024.13C450.14 1021.83 554.202 1020.45 549.317 1024.13Z" fill="#FD6F5C"/>
<path d="M549.317 1024.13L549.076 1024.36L545.41 1025.73C545.41 1025.73 538.569 1023.21 536.372 1023.21C534.172 1023.21 491.178 1022.06 475.301 1023.21C459.423 1024.36 444.278 1026.42 444.278 1026.42H444.032C440.857 1025.51 439.88 1024.59 441.835 1024.13C450.14 1021.83 554.206 1020.45 549.317 1024.13Z" fill="#FF503E"/>
<path d="M166.283 981.858C162.863 983.237 155.781 984.156 153.093 983.926C150.65 983.926 143.81 983.007 139.899 981.629H139.658C137.215 980.71 136.238 979.791 138.435 978.642C142.1 976.805 163.841 977.034 167.261 979.561C168.725 980.48 167.993 981.169 166.283 981.858Z" fill="#FD6F5C"/>
<path d="M166.283 981.858C163.84 981.399 161.398 980.94 158.465 980.71C149.918 980.021 139.899 981.629 139.899 981.629H139.658C137.215 980.71 136.238 979.791 138.435 978.642C142.1 976.805 163.841 977.034 167.261 979.561C168.725 980.48 167.993 981.169 166.283 981.858Z" fill="#FF503E"/>
<path d="M334.104 990.128C330.684 991.506 323.602 992.425 320.914 992.195C318.472 992.195 311.632 991.276 307.725 989.898H307.479C305.037 988.979 304.059 988.06 306.256 986.911C309.922 985.073 331.662 985.303 335.082 987.83C336.305 988.749 335.569 989.438 334.104 990.128Z" fill="#FD6F5C"/>
<path d="M334.104 990.128C331.662 989.668 329.219 989.209 326.286 988.979C317.74 988.29 307.725 989.898 307.725 989.898H307.479C305.037 988.979 304.059 988.06 306.256 986.911C309.922 985.073 331.662 985.303 335.082 987.83C336.305 988.749 335.569 989.438 334.104 990.128Z" fill="#FF503E"/>
<path d="M420.582 1034.69C417.162 1036.76 410.08 1038.14 407.392 1038.14C404.95 1038.14 398.109 1036.53 394.202 1034.46H393.957C391.514 1033.08 390.537 1031.47 392.734 1029.87C396.399 1027.11 418.139 1027.34 421.559 1031.47C423.024 1032.62 422.292 1033.77 420.582 1034.69Z" fill="#FD6F5C"/>
<path d="M420.582 1034.69C418.139 1034 415.697 1033.31 412.768 1032.86C404.217 1031.71 394.202 1034.23 394.202 1034.23H393.957C391.514 1032.86 390.537 1031.25 392.734 1029.64C396.399 1026.88 418.139 1027.11 421.559 1031.25C423.024 1032.63 422.292 1033.77 420.582 1034.69Z" fill="#FF503E"/>
<path d="M-254.856 961.177L-249.968 976.339L-145.906 982.772L-139.065 971.515L-99.7377 967.609L-34.7585 976.339L91.5378 971.515L-27.9182 968.298L-50.3908 961.636L-99.7377 966.69L-254.856 961.177Z" fill="#FF9B99"/>
<path d="M196.086 931.089L137.706 937.981L164.818 944.184L199.02 960.265L190.469 937.751L196.086 931.089Z" fill="#FF9B99"/>
<path d="M825.598 928.101L861.506 932.925L846.115 934.533L823.888 945.79L807.52 932.006L825.598 928.101Z" fill="#FF9B99"/>
<path opacity="0.25" d="M-1081.75 1170.7H1028.6L359.51 1135.32L-384.327 1089.37L-609.064 1081.33L-539.446 1070.76L-337.181 1055.14H-288.567L-232.138 1053.53L-36.714 1080.41L999.04 1053.53L-612.243 1045.72L-611.02 1045.03L-365.275 1040.89L-4.95874 1012.87L-480.084 1005.06L-512.821 1011.72H-557.279L-563.141 1013.33C-588.789 1016.54 -666.229 1025.73 -671.601 1025.73C-678.196 1025.5 -706.78 1026.88 -714.353 1022.75C-721.925 1018.61 -752.216 1018.38 -788.369 1029.87C-824.523 1041.58 -839.181 1041.58 -839.181 1041.58L-919.792 1064.56L-1103.49 1067.77C-1103.49 1067.77 -905.134 1076.04 -868.494 1069.15C-868.494 1069.15 -902.691 1087.53 -951.547 1094.42C-1000.4 1101.32 -1452.33 1140.37 -1452.33 1140.37L-1061.48 1135.78L-1217.82 1172.53L-1081.75 1170.7Z" fill="#FE4731"/>
<path d="M365 1145.55L459.05 1152.21L535.264 1148.99L496.668 1143.48L540.885 1139.8H772.462L683.542 1132.68L665.713 1113.38L633.954 1107.18L618.563 1103.96L594.135 1099.6L605.128 995.3L602.685 987.949V916.042L565.067 880.662L552.851 914.433L528.182 933.272L505.951 1025.85C505.951 1025.85 470.53 1034.13 450.255 1056.41V1104.42L440.727 1113.61L434.377 1133.83L420.942 1136.82L365 1145.55Z" fill="#FD6F5C"/>
<path opacity="0.3" d="M450.01 1056.41L460.757 1070.2V1084.67L473.705 1089.73V1135.9L452.939 1126.71L450.01 1104.43V1056.41Z" fill="#570048"/>
<path opacity="0.3" d="M434.128 1133.83L450.006 1146.47L374.524 1146.24L434.128 1133.83Z" fill="#570048"/>
<path opacity="0.3" d="M505.706 1025.86L531.353 1036.2L538.439 1108.33L544.788 999.67V945.912L527.933 933.506L505.706 1025.86Z" fill="#570048"/>
<path opacity="0.3" d="M552.606 914.432L560.67 916.73L556.759 979.907L568.975 914.432L557.736 900.189L552.606 914.432Z" fill="#570048"/>
<path opacity="0.51" d="M460.757 1070.2C460.757 1070.2 471.504 1072.03 493.003 1066.52C514.498 1061.01 531.353 1035.97 531.353 1035.97L505.706 1025.86C505.706 1025.86 477.612 1029.76 450.01 1056.41L460.757 1070.2Z" fill="#DFDFA1"/>
<path opacity="0.51" d="M440.24 1113.62L446.102 1123.96L452.942 1126.72L450.009 1104.43L440.24 1113.62Z" fill="#DFDFA1"/>
<path opacity="0.51" d="M602.927 989.559L593.644 999.897L566.287 1003.34L557.737 1010.23L568.971 1006.56H595.6V1014.6L605.128 995.302L602.927 989.559Z" fill="#DFDFA1"/>
<path opacity="0.51" d="M594.381 1099.61L548.699 1115.46L589.983 1118.9V1121.66H617.344H670.107L665.955 1113.62L594.381 1099.61Z" fill="#DFDFA1"/>
<path opacity="0.3" d="M548.699 1115.45V1129.47H552.61L550.655 1140.04L584.611 1140.73L589.982 1121.66V1118.9L548.699 1115.45Z" fill="#570048"/>
<path opacity="0.3" d="M521.338 1036.66C521.338 1036.66 516.698 1052.05 502.285 1059.86C487.872 1067.67 463.444 1066.53 463.444 1066.53C463.444 1066.53 455.872 1062.39 456.113 1056.42C456.359 1050.44 493.003 1032.75 500.33 1031.84C508.148 1031.15 521.338 1036.66 521.338 1036.66Z" fill="#570048"/>
<path d="M466.129 1066.52C466.129 1066.52 473.701 1056.41 489.092 1049.06C504.237 1041.71 517.918 1044.24 517.918 1044.24C517.918 1044.24 515.23 1052.28 502.527 1059.63C489.824 1067.44 466.129 1066.52 466.129 1066.52Z" fill="#E53229"/>
<path d="M473.705 1089.72L512.059 1083.06L535.264 1075.94L538.439 1108.33L492.025 1126.71L476.393 1115.45L473.705 1089.72Z" fill="#FD6F5C"/>
<path opacity="0.16" d="M584.607 916.739L581.432 951.429L568.971 966.821L557.737 977.159L568.971 914.442L584.607 916.739Z" fill="#DFDFA1"/>
<path d="M602.685 967.505L593.89 972.1L576.547 1001.97L568.975 1006.56L555.294 1036.66L551.387 1037.57L540.636 1070.2L552.606 1038.49L558.469 1037.57L570.194 1007.25L580.213 1001.51L595.6 973.019L602.685 970.492V967.505Z" fill="#E53229"/>
<path d="M570.194 1007.25L559.937 1038.5H557.736H552.606L558.469 1037.58L570.194 1007.25Z" fill="#C64F59"/>
<path d="M595.6 973.021L598.042 973.48L602.685 972.102V970.494L595.6 973.021Z" fill="#C64F59"/>
<path d="M593.893 1006.56L599.024 1005.41L595.603 1014.6L593.893 1006.56Z" fill="#C6685F"/>
<path d="M458.069 1066.52L460.757 1073.64L463.199 1070.43L458.069 1066.52Z" fill="#C6685F"/>
<path d="M586.808 1118.44L589.005 1125.11L593.893 1121.89L589.983 1118.9L586.808 1118.44Z" fill="#C6685F"/>
<path d="M520.605 1075.71L516.699 1087.42L520.605 1081.68V1075.71Z" fill="#E53229"/>
<path d="M520.606 1075.71V1081.68L516.699 1087.42L521.825 1082.37L520.606 1075.71Z" fill="#C64F59"/>
<path d="M550.651 1011.39L539.412 1004.95L544.543 1010.01L550.651 1011.39Z" fill="#E53229"/>
</g>
<path d="M288.328 569.444H293.25V552.464L307.25 529.987H301.645L290.871 547.706H290.707L279.934 529.987H274.328L288.328 552.464V569.444ZM317.613 569.991C325.461 569.991 330.766 564.304 330.766 555.226V555.171C330.766 546.093 325.434 540.46 317.586 540.46C309.738 540.46 304.434 546.12 304.434 555.171V555.226C304.434 564.276 309.711 569.991 317.613 569.991ZM317.641 565.78C312.609 565.78 309.301 561.925 309.301 555.226V555.171C309.301 548.526 312.637 544.671 317.586 544.671C322.617 544.671 325.898 548.499 325.898 555.171V555.226C325.898 561.898 322.645 565.78 317.641 565.78ZM345.285 569.991C349.605 569.991 352.504 568.05 354.035 565.398H354.145V569.444H358.902V541.007H354.145V557.741C354.145 562.581 351.219 565.78 346.734 565.78C342.359 565.78 340.199 563.237 340.199 558.616V541.007H335.441V559.464C335.441 565.944 339.051 569.991 345.285 569.991ZM367.406 543.905H370.852L371.398 529.987H366.859L367.406 543.905ZM379.328 569.444H384.086V551.89C384.086 547.569 386.492 544.999 390.184 544.999C391.332 544.999 392.344 545.136 392.727 545.273V540.651C392.344 540.597 391.633 540.46 390.812 540.46C387.613 540.46 385.152 542.538 384.195 545.819H384.086V541.007H379.328V569.444ZM406.945 569.991C413.152 569.991 417.801 566.273 418.73 561.569L418.785 561.296H414.109L414.027 561.542C413.207 563.976 410.664 565.78 407.055 565.78C401.996 565.78 398.77 562.362 398.66 556.511H419.141V554.761C419.141 546.23 414.41 540.46 406.645 540.46C398.879 540.46 393.848 546.503 393.848 555.308V555.335C393.848 564.276 398.77 569.991 406.945 569.991ZM406.617 544.671C410.773 544.671 413.836 547.269 414.301 552.792H398.742C399.262 547.487 402.488 544.671 406.617 544.671ZM444.68 569.991C445.609 569.991 446.621 569.882 447.223 569.8V565.944C446.812 565.972 446.266 566.054 445.691 566.054C443.148 566.054 441.809 565.206 441.809 562.171V544.944H447.223V541.007H441.809V533.323H436.887V541.007H432.73V544.944H436.887V562.198C436.887 567.64 439.457 569.991 444.68 569.991ZM452.582 569.444H457.34V552.847C457.34 548.007 460.266 544.671 464.668 544.671C469.098 544.671 471.723 547.706 471.723 552.847V569.444H476.48V552.026C476.48 545.136 472.352 540.46 466.309 540.46C462.07 540.46 458.98 542.347 457.449 545.546H457.34V529.987H452.582V569.444ZM494.227 569.991C500.434 569.991 505.082 566.273 506.012 561.569L506.066 561.296H501.391L501.309 561.542C500.488 563.976 497.945 565.78 494.336 565.78C489.277 565.78 486.051 562.362 485.941 556.511H506.422V554.761C506.422 546.23 501.691 540.46 493.926 540.46C486.16 540.46 481.129 546.503 481.129 555.308V555.335C481.129 564.276 486.051 569.991 494.227 569.991ZM493.898 544.671C498.055 544.671 501.117 547.269 501.582 552.792H486.023C486.543 547.487 489.77 544.671 493.898 544.671ZM534.504 569.991C540.93 569.991 545.605 565.808 546.371 560.394L546.398 560.202H541.723L541.668 560.421C540.875 563.593 538.387 565.78 534.504 565.78C529.582 565.78 526.191 561.87 526.191 555.253V555.226C526.191 548.773 529.5 544.671 534.449 544.671C538.633 544.671 540.93 547.187 541.641 550.03L541.695 550.249H546.344L546.316 550.03C545.715 545.163 541.531 540.46 534.449 540.46C526.547 540.46 521.324 546.202 521.324 555.171V555.198C521.324 564.249 526.438 569.991 534.504 569.991ZM551.02 569.444H555.777V552.847C555.777 548.007 558.703 544.671 563.105 544.671C567.535 544.671 570.16 547.706 570.16 552.847V569.444H574.918V552.026C574.918 545.136 570.789 540.46 564.746 540.46C560.508 540.46 557.418 542.347 555.887 545.546H555.777V529.987H551.02V569.444ZM592.746 569.991C600.594 569.991 605.898 564.304 605.898 555.226V555.171C605.898 546.093 600.566 540.46 592.719 540.46C584.871 540.46 579.566 546.12 579.566 555.171V555.226C579.566 564.276 584.844 569.991 592.746 569.991ZM592.773 565.78C587.742 565.78 584.434 561.925 584.434 555.226V555.171C584.434 548.526 587.77 544.671 592.719 544.671C597.75 544.671 601.031 548.499 601.031 555.171V555.226C601.031 561.898 597.777 565.78 592.773 565.78ZM620.801 569.991C627.145 569.991 631.848 566.491 631.848 561.515V561.487C631.848 557.441 629.77 555.171 624.027 553.776L619.516 552.683C616.371 551.917 615.086 550.577 615.086 548.636V548.609C615.086 546.093 617.219 544.425 620.664 544.425C624.191 544.425 626.297 546.257 626.68 549.019L626.707 549.21H631.246L631.219 548.855C630.863 544.097 626.898 540.46 620.664 540.46C614.512 540.46 610.219 543.933 610.219 548.827V548.855C610.219 552.956 612.816 555.444 618.176 556.73L622.688 557.823C625.914 558.616 626.98 559.765 626.98 561.816V561.843C626.98 564.413 624.684 566.026 620.828 566.026C616.945 566.026 614.84 564.359 614.266 561.515L614.211 561.241H609.453L609.48 561.487C610.055 566.573 614.102 569.991 620.801 569.991ZM648.5 569.991C654.707 569.991 659.355 566.273 660.285 561.569L660.34 561.296H655.664L655.582 561.542C654.762 563.976 652.219 565.78 648.609 565.78C643.551 565.78 640.324 562.362 640.215 556.511H660.695V554.761C660.695 546.23 655.965 540.46 648.199 540.46C640.434 540.46 635.402 546.503 635.402 555.308V555.335C635.402 564.276 640.324 569.991 648.5 569.991ZM648.172 544.671C652.328 544.671 655.391 547.269 655.855 552.792H640.297C640.816 547.487 644.043 544.671 648.172 544.671ZM665.508 569.444H670.266V552.71C670.266 547.87 673.191 544.671 677.676 544.671C682.051 544.671 684.211 547.214 684.211 551.835V569.444H688.969V550.987C688.969 544.507 685.359 540.46 679.125 540.46C674.805 540.46 671.906 542.401 670.375 545.054H670.266V541.007H665.508V569.444ZM718.309 569.991C726.156 569.991 731.461 564.304 731.461 555.226V555.171C731.461 546.093 726.129 540.46 718.281 540.46C710.434 540.46 705.129 546.12 705.129 555.171V555.226C705.129 564.276 710.406 569.991 718.309 569.991ZM718.336 565.78C713.305 565.78 709.996 561.925 709.996 555.226V555.171C709.996 548.526 713.332 544.671 718.281 544.671C723.312 544.671 726.594 548.499 726.594 555.171V555.226C726.594 561.898 723.34 565.78 718.336 565.78ZM736.273 569.444H741.031V552.71C741.031 547.87 743.957 544.671 748.441 544.671C752.816 544.671 754.977 547.214 754.977 551.835V569.444H759.734V550.987C759.734 544.507 756.125 540.46 749.891 540.46C745.57 540.46 742.672 542.401 741.141 545.054H741.031V541.007H736.273V569.444ZM777.508 569.991C783.715 569.991 788.363 566.273 789.293 561.569L789.348 561.296H784.672L784.59 561.542C783.77 563.976 781.227 565.78 777.617 565.78C772.559 565.78 769.332 562.362 769.223 556.511H789.703V554.761C789.703 546.23 784.973 540.46 777.207 540.46C769.441 540.46 764.41 546.503 764.41 555.308V555.335C764.41 564.276 769.332 569.991 777.508 569.991ZM777.18 544.671C781.336 544.671 784.398 547.269 784.863 552.792H769.305C769.824 547.487 773.051 544.671 777.18 544.671ZM796.758 556.347H801.023L801.352 529.987H796.43L796.758 556.347ZM798.891 569.718C800.668 569.718 802.008 568.351 802.008 566.601C802.008 564.823 800.668 563.484 798.891 563.484C797.141 563.484 795.773 564.823 795.773 566.601C795.773 568.351 797.141 569.718 798.891 569.718Z" fill="black" fill-opacity="0.8"/>
<path d="M292.125 344.444H309.047L319.734 303.851H320.062L330.797 344.444H347.719L365.391 276.804H347.625L338.438 321.523H338.109L327.141 276.804H312.703L301.734 321.523H301.406L292.219 276.804H274.453L292.125 344.444ZM389.766 345.523C406.031 345.523 412.453 335.96 414 328.882L414.141 328.319H399.141L399.094 328.554C398.344 330.663 395.438 333.71 390.094 333.71C384.047 333.71 380.297 329.632 380.109 322.741H414.422V317.866C414.422 302.398 404.625 292.319 389.203 292.319C373.688 292.319 363.844 302.491 363.844 318.898V318.944C363.844 335.444 373.641 345.523 389.766 345.523ZM389.578 304.132C394.453 304.132 397.922 307.226 398.766 312.944H380.344C381.188 307.319 384.703 304.132 389.578 304.132ZM421.172 344.444H437.812V276.804H421.172V344.444ZM470.531 345.523C485.25 345.523 494.203 336.616 494.531 324.757V324.429H479.297L479.203 324.898C478.547 329.773 475.594 332.913 470.719 332.913C464.812 332.913 461.438 327.944 461.438 318.944V318.898C461.438 310.038 464.906 304.929 470.672 304.929C475.547 304.929 478.547 308.21 479.203 312.944L479.25 313.413H494.531L494.484 313.085C494.25 300.944 484.781 292.319 470.391 292.319C454.5 292.319 444.562 302.398 444.562 318.851V318.898C444.562 335.444 454.453 345.523 470.531 345.523ZM525.234 345.523C541.312 345.523 551.344 335.819 551.344 318.944V318.851C551.344 302.21 541.125 292.319 525.234 292.319C509.391 292.319 499.125 302.304 499.125 318.851V318.944C499.125 335.773 509.062 345.523 525.234 345.523ZM525.281 332.913C519.516 332.913 516 327.944 516 318.944V318.851C516 310.038 519.609 304.929 525.234 304.929C530.859 304.929 534.516 310.038 534.516 318.851V318.944C534.516 327.898 530.953 332.913 525.281 332.913ZM557.766 344.444H574.406V314.257C574.406 309.194 577.312 305.866 581.812 305.866C586.359 305.866 588.891 308.679 588.891 313.835V344.444H604.781V314.163C604.781 309.101 607.594 305.866 612.094 305.866C616.781 305.866 619.266 308.632 619.266 313.976V344.444H635.906V309.71C635.906 299.351 629.109 292.319 619.125 292.319C611.531 292.319 605.344 296.632 603.375 303.241H603.047C601.594 296.304 596.391 292.319 589.125 292.319C582.141 292.319 576.703 296.351 574.734 302.585H574.406V293.398H557.766V344.444ZM668.109 345.523C684.375 345.523 690.797 335.96 692.344 328.882L692.484 328.319H677.484L677.438 328.554C676.688 330.663 673.781 333.71 668.438 333.71C662.391 333.71 658.641 329.632 658.453 322.741H692.766V317.866C692.766 302.398 682.969 292.319 667.547 292.319C652.031 292.319 642.188 302.491 642.188 318.898V318.944C642.188 335.444 651.984 345.523 668.109 345.523ZM667.922 304.132C672.797 304.132 676.266 307.226 677.109 312.944H658.688C659.531 307.319 663.047 304.132 667.922 304.132ZM740.062 345.523C743.531 345.523 746.016 345.241 747.844 344.913V333.101C746.906 333.241 746.062 333.335 744.75 333.335C740.672 333.335 738.703 331.694 738.703 327.288V305.585H747.844V293.398H738.703V281.632H722.062V293.398H715.125V305.585H722.062V329.538C722.062 341.069 727.688 345.523 740.062 345.523ZM778.922 345.523C795 345.523 805.031 335.819 805.031 318.944V318.851C805.031 302.21 794.812 292.319 778.922 292.319C763.078 292.319 752.812 302.304 752.812 318.851V318.944C752.812 335.773 762.75 345.523 778.922 345.523ZM778.969 332.913C773.203 332.913 769.688 327.944 769.688 318.944V318.851C769.688 310.038 773.297 304.929 778.922 304.929C784.547 304.929 788.203 310.038 788.203 318.851V318.944C788.203 327.898 784.641 332.913 778.969 332.913ZM409.078 460.663C426.656 460.663 439.031 449.366 439.641 434.226L439.688 433.71H423.141L423.047 434.226C421.875 441.773 416.578 446.413 409.125 446.413C399.703 446.413 393.703 438.632 393.703 425.554V425.507C393.703 412.569 399.656 404.835 409.078 404.835C416.953 404.835 421.875 409.804 422.953 416.835L423.047 417.538H439.594V417.069C438.984 401.929 426.75 390.585 409.078 390.585C388.875 390.585 376.172 403.476 376.172 425.554V425.601C376.172 447.679 388.781 460.663 409.078 460.663ZM461.625 460.148C468.281 460.148 473.344 457.241 476.25 452.226H476.578V459.444H493.172V424.616C493.172 414.257 484.125 407.319 470.391 407.319C456.188 407.319 447.703 414.116 446.906 424.054L446.859 424.663H461.812L461.906 424.194C462.469 421.569 465.094 419.507 469.547 419.507C474.188 419.507 476.578 421.804 476.578 425.507V428.038L464.953 428.788C451.781 429.679 444.375 435.069 444.375 444.679V444.726C444.375 453.632 451.359 460.148 461.625 460.148ZM460.688 443.648V443.601C460.688 440.554 462.984 438.632 467.625 438.351L476.578 437.741V441.163C476.578 445.476 472.781 448.663 467.438 448.663C463.359 448.663 460.688 446.835 460.688 443.648ZM523.312 460.523C526.781 460.523 529.266 460.241 531.094 459.913V448.101C530.156 448.241 529.312 448.335 528 448.335C523.922 448.335 521.953 446.694 521.953 442.288V420.585H531.094V408.398H521.953V396.632H505.312V408.398H498.375V420.585H505.312V444.538C505.312 456.069 510.938 460.523 523.312 460.523ZM562.172 460.523C578.25 460.523 588.281 450.819 588.281 433.944V433.851C588.281 417.21 578.062 407.319 562.172 407.319C546.328 407.319 536.062 417.304 536.062 433.851V433.944C536.062 450.773 546 460.523 562.172 460.523ZM562.219 447.913C556.453 447.913 552.938 442.944 552.938 433.944V433.851C552.938 425.038 556.547 419.929 562.172 419.929C567.797 419.929 571.453 425.038 571.453 433.851V433.944C571.453 442.898 567.891 447.913 562.219 447.913ZM601.594 459.444H618.75V405.632H637.406V391.804H582.938V405.632H601.594V459.444ZM662.344 459.444H684.281L705.703 391.804H686.438L673.5 442.663H673.172L660.188 391.804H640.922L662.344 459.444Z" fill="black"/>
<path d="M572.099 99.8305C561.794 93.8161 551.654 87.3025 541.088 81.6922C539.387 80.6995 537.477 80.1259 535.513 80.0185C533.549 79.9111 531.588 80.2728 529.79 81.0741C522.416 84.2438 515.041 87.3025 507.667 90.2503C505.359 91.1218 503.38 92.6973 502.007 94.7562C500.634 96.815 499.935 99.2542 500.008 101.732V155.244C499.912 158.245 500.643 161.214 502.119 163.824C503.596 166.433 505.761 168.581 508.376 170.03L535.557 186.124C537.568 187.344 539.82 188.105 542.155 188.354C544.49 188.603 546.85 188.334 549.07 187.566C551.29 186.797 553.316 185.548 555.004 183.907C556.692 182.265 558.001 180.271 558.839 178.065C559.217 177.043 559.572 176.687 560.754 176.924C562.818 177.354 564.947 177.369 567.018 176.967C569.088 176.565 571.059 175.756 572.817 174.585C574.574 173.413 576.084 171.904 577.259 170.143C578.434 168.382 579.251 166.405 579.663 164.325C579.867 163.315 579.978 162.289 579.994 161.258V113.714C580.075 110.893 579.381 108.104 577.989 105.655C576.596 103.205 574.558 101.19 572.099 99.8305ZM551.181 148.73V171.742C551.277 173.176 550.965 174.607 550.283 175.87C549.601 177.132 548.576 178.174 547.328 178.874C546.129 179.538 544.769 179.85 543.403 179.774C542.036 179.699 540.718 179.238 539.599 178.446C530.972 173.287 522.368 168.105 513.599 163.089C512.028 162.308 510.722 161.075 509.847 159.548C508.972 158.02 508.567 156.266 508.683 154.507C508.683 139.459 508.848 124.411 508.683 109.339C508.551 107.9 508.83 106.452 509.486 105.167C510.143 103.881 511.15 102.809 512.391 102.079C513.631 101.348 515.052 100.987 516.489 101.04C517.925 101.092 519.317 101.555 520.501 102.374C529.223 107.818 538.157 112.929 547.045 118.135C548.381 118.857 549.484 119.947 550.225 121.278C550.966 122.609 551.314 124.125 551.228 125.647C551.157 133.326 551.181 141.004 551.181 148.73ZM571.201 161.116C571.25 162.204 571.05 163.289 570.617 164.288C570.184 165.286 569.53 166.172 568.704 166.877C567.877 167.581 566.902 168.086 565.851 168.353C564.801 168.619 563.704 168.64 562.645 168.414C560.281 168.105 559.903 167.534 559.903 165.252V125.243C560.002 122.291 559.283 119.369 557.827 116.804C556.37 114.239 554.233 112.132 551.654 110.718C542.199 105.013 532.461 99.3788 522.581 93.5784C526.457 91.9619 530.145 90.3929 533.832 88.8239C534.536 88.6288 535.274 88.5873 535.995 88.7021C536.717 88.8169 537.406 89.0854 538.016 89.4895C543.71 92.3317 549.235 95.5068 554.561 98.9985C558.721 101.613 562.881 104.228 567.064 106.748C568.336 107.408 569.4 108.412 570.135 109.647C570.87 110.881 571.247 112.298 571.224 113.737C571.224 129.443 571.224 145.156 571.224 160.878L571.201 161.116Z" fill="white"/>
<path d="M208 730L218.804 759.196L248 770L218.804 780.804L208 810L197.196 780.804L168 770L197.196 759.196L208 730Z" fill="white"/>
<path d="M741 814L751.804 843.196L781 854L751.804 864.804L741 894L730.196 864.804L701 854L730.196 843.196L741 814Z" fill="white"/>
<defs>
<clipPath id="clip0_8:390">
<rect width="1080" height="600" fill="white" transform="translate(0 830)"/>
</clipPath>
</defs>
</svg>
